<svg xmlns="http://www.w3.org/2000/svg" width="30.303" height="31.277" viewBox="0 0 30.303 31.277">
  <defs>
    <style>
      .cls-1 {
        fill: #fff;
        stroke: #fff;
      }
    </style>
  </defs>
  <g id="rain_icon" data-name="rain icon" transform="translate(-259.849 -566.749)">
    <path id="Subtraction_6" data-name="Subtraction 6" class="cls-1" d="M4.651,15a4.464,4.464,0,0,1-3.289-1.464A5.162,5.162,0,0,1,0,10,8,8,0,0,1,.727,7.272a35.221,35.221,0,0,1,1.6-3.308C3.476,1.834,4.641.018,4.653,0l.019.028c.29.458,1.313,2.094,2.307,3.936a35.193,35.193,0,0,1,1.6,3.308A8,8,0,0,1,9.3,10,5.162,5.162,0,0,1,7.94,13.536,4.464,4.464,0,0,1,4.651,15Zm0-13.408C2.678,4.124.82,8.476.82,10a5.137,5.137,0,0,0,.388,1.9,3.137,3.137,0,0,0,.879,1.291,4.3,4.3,0,0,0,2.566,1.064A4.393,4.393,0,0,0,8.61,10a11.71,11.71,0,0,0-1.1-3.785A17.613,17.613,0,0,0,4.652,1.592h0Z" transform="translate(270.349 582.526)"/>
    <path id="Subtraction_7" data-name="Subtraction 7" class="cls-1" d="M4.651,15a4.464,4.464,0,0,1-3.289-1.464A5.162,5.162,0,0,1,0,10,8,8,0,0,1,.727,7.272a35.221,35.221,0,0,1,1.6-3.308C3.476,1.834,4.641.018,4.653,0l.019.028c.29.458,1.313,2.094,2.307,3.936a35.193,35.193,0,0,1,1.6,3.308A8,8,0,0,1,9.3,10,5.162,5.162,0,0,1,7.94,13.536,4.464,4.464,0,0,1,4.651,15Zm0-13.408C2.678,4.124.82,8.476.82,10a5.137,5.137,0,0,0,.388,1.9,3.137,3.137,0,0,0,.879,1.291,4.3,4.3,0,0,0,2.566,1.064A4.393,4.393,0,0,0,8.61,10a11.71,11.71,0,0,0-1.1-3.785A17.613,17.613,0,0,0,4.652,1.592h0Z" transform="translate(280.349 567.526)"/>
    <path id="Subtraction_8" data-name="Subtraction 8" class="cls-1" d="M4.651,15a4.464,4.464,0,0,1-3.289-1.464A5.162,5.162,0,0,1,0,10,8,8,0,0,1,.727,7.272a35.221,35.221,0,0,1,1.6-3.308C3.476,1.834,4.641.018,4.653,0l.019.028c.29.458,1.313,2.094,2.307,3.936a35.193,35.193,0,0,1,1.6,3.308A8,8,0,0,1,9.3,10,5.162,5.162,0,0,1,7.94,13.536,4.464,4.464,0,0,1,4.651,15Zm0-13.408C2.678,4.124.82,8.476.82,10a5.137,5.137,0,0,0,.388,1.9,3.137,3.137,0,0,0,.879,1.291,4.3,4.3,0,0,0,2.566,1.064A4.393,4.393,0,0,0,8.61,10a11.71,11.71,0,0,0-1.1-3.785A17.613,17.613,0,0,0,4.652,1.592h0Z" transform="translate(260.349 567.526)"/>
  </g>
</svg>
