<svg xmlns="http://www.w3.org/2000/svg" width="13.999" height="34" viewBox="0 0 13.999 34">
  <defs>
    <style>
      .cls-1 {
        fill: none;
        stroke-linejoin: round;
      }

      .cls-2 {
        fill: #fff;
      }

      .cls-3, .cls-4 {
        stroke: none;
      }

      .cls-4 {
        fill: #fff;
      }
    </style>
  </defs>
  <g id="temperature_icon_" data-name="temperature icon " transform="translate(-42 -564.526)">
    <g id="Union_1" data-name="Union 1" class="cls-1" transform="translate(42 564.526)">
      <path class="cls-3" d="M0,27.2A6.715,6.715,0,0,1,2.486,22q0-.067,0-.135V3.975A4.272,4.272,0,0,1,7,0a4.273,4.273,0,0,1,4.517,3.975V21.86q0,.068,0,.135A6.715,6.715,0,0,1,14,27.2,6.9,6.9,0,0,1,7,34,6.9,6.9,0,0,1,0,27.2Z"/>
      <path class="cls-4" d="M 6.99969482421875 32 C 9.756534576416016 32 11.99939441680908 29.84473991394043 11.99939441680908 27.19556045532227 C 11.99939441680908 25.78854942321777 11.35979461669922 24.45643997192383 10.24459457397461 23.54079055786133 C 9.761585235595703 23.14421081542969 9.491724967956543 22.54463958740234 9.515134811401367 21.92011070251465 C 9.515884399414063 21.90019989013672 9.516354560852051 21.88023948669434 9.516354560852051 21.86017036437988 L 9.516354560852051 3.975039958953857 C 9.516354560852051 2.904459953308105 8.363864898681641 2 6.99969482421875 2 C 5.635524749755859 2 4.483034610748291 2.904459953308105 4.483034610748291 3.975039958953857 L 4.483034610748291 21.86017036437988 C 4.483034610748291 21.87978935241699 4.483484745025635 21.8993091583252 4.484224796295166 21.91877937316895 C 4.508084774017334 22.54376029968262 4.238194942474365 23.1439208984375 3.754814863204956 23.54080009460449 C 2.639604806900024 24.45643997192383 2.000004768371582 25.78854942321777 2.000004768371582 27.19556045532227 C 2.000004768371582 29.84473991394043 4.242854595184326 32 6.99969482421875 32 M 6.99969482421875 34 C 3.134034872055054 34 4.824218649446266e-06 30.95343017578125 4.824218649446266e-06 27.19556045532227 C 4.824218649446266e-06 25.10980033874512 0.9653947949409485 23.24328994750977 2.485684871673584 21.99505996704102 C 2.483974933624268 21.95026016235352 2.48303484916687 21.90533065795898 2.48303484916687 21.86017036437988 L 2.48303484916687 3.975039958953857 C 2.48303484916687 1.780089974403381 4.504884719848633 0 6.99969482421875 0 C 9.493624687194824 0 11.51635456085205 1.780089974403381 11.51635456085205 3.975039958953857 L 11.51635456085205 21.86017036437988 C 11.51635456085205 21.90533065795898 11.51541519165039 21.95026016235352 11.51373481750488 21.99505996704102 C 13.03399467468262 23.24328994750977 13.99939441680908 25.10980033874512 13.99939441680908 27.19556045532227 C 13.99939441680908 30.95343017578125 10.86535453796387 34 6.99969482421875 34 Z"/>
    </g>
    <path id="Union_2" data-name="Union 2" class="cls-2" d="M0,18a3,3,0,0,1,2-2.829V1A1,1,0,1,1,4,1V15.171A3,3,0,1,1,0,18Z" transform="translate(46 573.526)"/>
  </g>
</svg>
