<svg xmlns="http://www.w3.org/2000/svg" width="34" height="34.578" viewBox="0 0 34 34.578">
  <defs>
    <style>
      .cls-1, .cls-2 {
        fill: #fff;
      }

      .cls-1 {
        font-size: 15px;
        font-family: Roboto-Regular, Roboto;
      }
    </style>
  </defs>
  <g id="uv_icon_" data-name="uv icon " transform="translate(-240 -161.416)">
    <text id="UV" class="cls-1" transform="translate(257 185)"><tspan x="-9.635" y="0">UV</tspan></text>
    <path id="Path_9972" data-name="Path 9972" class="cls-2" d="M17.016,5.408a1.072,1.072,0,0,1-1.063-1.081V1.084a1.063,1.063,0,1,1,2.126,0V4.327A1.072,1.072,0,0,1,17.016,5.408ZM8,9.2a1.05,1.05,0,0,1-.75-.318L4.992,6.586a1.094,1.094,0,0,1,0-1.529,1.05,1.05,0,0,1,1.5,0l2.26,2.29a1.094,1.094,0,0,1,.231,1.179A1.063,1.063,0,0,1,8,9.193ZM4.255,18.358H1.066a1.081,1.081,0,0,1,0-2.162H4.255a1.081,1.081,0,0,1,0,2.162ZM5.724,29.822a1.063,1.063,0,0,1-.984-.667,1.094,1.094,0,0,1,.231-1.179l2.258-2.292a1.05,1.05,0,0,1,1.5,0,1.094,1.094,0,0,1,0,1.529L6.474,29.5a1.05,1.05,0,0,1-.75.318Zm11.265,4.758A1.072,1.072,0,0,1,15.925,33.5V30.257a1.063,1.063,0,1,1,2.126,0V33.5A1.072,1.072,0,0,1,16.988,34.581Zm11.271-4.737a1.05,1.05,0,0,1-.75-.318l-2.253-2.292a1.093,1.093,0,0,1-.311-1.06,1.072,1.072,0,0,1,.769-.783,1.052,1.052,0,0,1,1.043.315L29.009,28a1.094,1.094,0,0,1,.232,1.178,1.063,1.063,0,0,1-.982.668ZM32.94,18.388H29.751a1.081,1.081,0,0,1,0-2.162H32.94a1.081,1.081,0,0,1,0,2.162ZM26.027,9.217a1.063,1.063,0,0,1-.984-.667,1.094,1.094,0,0,1,.231-1.179l2.253-2.292a1.051,1.051,0,0,1,1.5,0,1.1,1.1,0,0,1,0,1.53L26.78,8.9a1.05,1.05,0,0,1-.753.318Z" transform="translate(239.997 161.413)"/>
  </g>
</svg>
